<svg width="1200" height="560" viewBox="0 0 1200 560" fill="none" xmlns="http://www.w3.org/2000/svg">
  <defs>
    <linearGradient id="panel" x1="0" y1="0" x2="1200" y2="560" gradientUnits="userSpaceOnUse">
      <stop stop-color="#f8fcff"/>
      <stop offset="1" stop-color="#f1f7ff"/>
    </linearGradient>
    <linearGradient id="stepA" x1="0" y1="0" x2="255" y2="146" gradientUnits="userSpaceOnUse">
      <stop stop-color="#e7f7f7"/>
      <stop offset="1" stop-color="#d9ecec"/>
    </linearGradient>
    <linearGradient id="stepB" x1="0" y1="0" x2="255" y2="146" gradientUnits="userSpaceOnUse">
      <stop stop-color="#f4ecff"/>
      <stop offset="1" stop-color="#e7ddff"/>
    </linearGradient>
    <linearGradient id="stepC" x1="0" y1="0" x2="255" y2="146" gradientUnits="userSpaceOnUse">
      <stop stop-color="#e9f5ff"/>
      <stop offset="1" stop-color="#d9ecff"/>
    </linearGradient>
    <linearGradient id="stepD" x1="0" y1="0" x2="255" y2="146" gradientUnits="userSpaceOnUse">
      <stop stop-color="#edf7ef"/>
      <stop offset="1" stop-color="#e2f1e5"/>
    </linearGradient>
    <linearGradient id="note" x1="0" y1="0" x2="1080" y2="130" gradientUnits="userSpaceOnUse">
      <stop stop-color="#fff5df"/>
      <stop offset="1" stop-color="#f8ecd4"/>
    </linearGradient>
    <style>
      .h1 { font: 700 35px "Inter", "Segoe UI", sans-serif; fill: #1b273a; letter-spacing: -0.4px; }
      .lead { font: 500 19px "Inter", "Segoe UI", sans-serif; fill: #33516b; }
      .head { font: 700 18px "Inter", "Segoe UI", sans-serif; fill: #1f2e45; }
      .body { font: 500 15px "Inter", "Segoe UI", sans-serif; fill: #33516b; }
      .mono { font: 700 13px "IBM Plex Mono", monospace; fill: #2a4660; letter-spacing: 0.3px; }
      .note { font: 600 15px "Inter", "Segoe UI", sans-serif; fill: #57451f; }
      .strong { font: 700 16px "Inter", "Segoe UI", sans-serif; fill: #3f3316; }
    </style>
  </defs>

  <rect x="0" y="0" width="1200" height="560" rx="18" fill="url(#panel)"/>
  <rect x="1" y="1" width="1198" height="558" rx="17" stroke="#cfe0ef" stroke-width="2"/>

  <text x="40" y="60" class="h1">M2 + OP: Training Flow Used In This App</text>
  <text x="40" y="95" class="lead">Some tutorials use different buffers or lettering. The process below stays the same.</text>

  <rect x="40" y="130" width="140" height="30" rx="15" fill="#dceafe"/>
  <text x="58" y="149" class="mono">FLOW</text>

  <rect x="40" y="180" width="255" height="146" rx="16" fill="url(#stepA)" stroke="#b4d5d5"/>
  <text x="62" y="215" class="head">1) Read Letter</text>
  <text x="62" y="247" class="body">Find the target sticker for that</text>
  <text x="62" y="272" class="body">letter in your active mapping.</text>
  <text x="62" y="302" class="body">Skip buffer stickers.</text>

  <rect x="330" y="180" width="255" height="146" rx="16" fill="url(#stepB)" stroke="#c5b4f3"/>
  <text x="352" y="215" class="head">2) Recall Setup</text>
  <text x="352" y="247" class="body">Convert letter to setup move.</text>
  <text x="352" y="272" class="body">If no setup exists, go direct.</text>

  <rect x="620" y="180" width="255" height="146" rx="16" fill="url(#stepC)" stroke="#b5caea"/>
  <text x="642" y="215" class="head">3) Execute Core</text>
  <text x="642" y="247" class="body">Edges: setup + M2 + undo.</text>
  <text x="642" y="272" class="body">Corners: setup + Y-perm + undo.</text>

  <rect x="910" y="180" width="250" height="146" rx="16" fill="url(#stepD)" stroke="#b7d6bc"/>
  <text x="932" y="215" class="head">4) Rate Recall</text>
  <text x="932" y="247" class="body">Again / Hard / Good / Easy.</text>
  <text x="932" y="272" class="body">Feed SRS with honest feedback.</text>

  <path d="M299 253H324" stroke="#6f9fc4" stroke-width="4" stroke-linecap="round"/>
  <path d="M315 244L326 253L315 262" stroke="#6f9fc4" stroke-width="4" stroke-linecap="round" stroke-linejoin="round"/>
  <path d="M589 253H614" stroke="#7f92c8" stroke-width="4" stroke-linecap="round"/>
  <path d="M605 244L616 253L605 262" stroke="#7f92c8" stroke-width="4" stroke-linecap="round" stroke-linejoin="round"/>
  <path d="M879 253H904" stroke="#6f9f9f" stroke-width="4" stroke-linecap="round"/>
  <path d="M895 244L906 253L895 262" stroke="#6f9f9f" stroke-width="4" stroke-linecap="round" stroke-linejoin="round"/>

  <rect x="40" y="362" width="1120" height="150" rx="16" fill="url(#note)" stroke="#e2d0a1"/>
  <text x="64" y="400" class="head">Convention configured in this trainer</text>

  <rect x="64" y="418" width="280" height="34" rx="10" fill="#fff" stroke="#ddca98"/>
  <text x="80" y="440" class="mono">EDGE BUFFER: UF (C / I)</text>

  <rect x="360" y="418" width="320" height="34" rx="10" fill="#fff" stroke="#ddca98"/>
  <text x="376" y="440" class="mono">CORNER BUFFER: URF (B / H / P)</text>

  <text x="64" y="478" class="note">If your guide uses ULB or another lettering system, only the mapping changes.</text>
  <text x="64" y="503" class="strong">Method stays: memo letters -> setup -> core move -> undo -> repeat.</text>
</svg>
