<svg width="1200" height="760" viewBox="0 0 1200 760" fill="none" xmlns="http://www.w3.org/2000/svg">
  <defs>
    <linearGradient id="bg" x1="0" y1="0" x2="1200" y2="760" gradientUnits="userSpaceOnUse">
      <stop stop-color="#f4fbff"/>
      <stop offset="1" stop-color="#eef6ff"/>
    </linearGradient>
    <linearGradient id="cardA" x1="0" y1="0" x2="340" y2="170" gradientUnits="userSpaceOnUse">
      <stop stop-color="#e7f7f7"/>
      <stop offset="1" stop-color="#d8ecec"/>
    </linearGradient>
    <linearGradient id="cardB" x1="0" y1="0" x2="340" y2="170" gradientUnits="userSpaceOnUse">
      <stop stop-color="#f4ebff"/>
      <stop offset="1" stop-color="#e7dcff"/>
    </linearGradient>
    <linearGradient id="cardC" x1="0" y1="0" x2="340" y2="170" gradientUnits="userSpaceOnUse">
      <stop stop-color="#e8f5ff"/>
      <stop offset="1" stop-color="#d7ebff"/>
    </linearGradient>
    <linearGradient id="cardD" x1="0" y1="0" x2="1120" y2="190" gradientUnits="userSpaceOnUse">
      <stop stop-color="#fff3da"/>
      <stop offset="1" stop-color="#f9ead0"/>
    </linearGradient>
    <style>
      .title { font: 700 42px "Inter", "Segoe UI", sans-serif; fill: #1a2332; letter-spacing: -0.5px; }
      .subtitle { font: 500 20px "Inter", "Segoe UI", sans-serif; fill: #2f4d63; }
      .stephead { font: 700 18px "Inter", "Segoe UI", sans-serif; fill: #1a2332; letter-spacing: 0.2px; }
      .body { font: 500 16px "Inter", "Segoe UI", sans-serif; fill: #254055; }
      .muted { font: 500 15px "Inter", "Segoe UI", sans-serif; fill: #36576f; }
      .chip { font: 700 13px "IBM Plex Mono", monospace; fill: #1f3d53; letter-spacing: 0.4px; }
      .footer { font: 600 15px "Inter", "Segoe UI", sans-serif; fill: #5e4b1b; }
    </style>
  </defs>

  <rect x="0" y="0" width="1200" height="760" rx="28" fill="url(#bg)"/>
  <rect x="30" y="30" width="1140" height="700" rx="24" fill="#ffffff" stroke="#d4e3ef" stroke-width="2"/>

  <text x="70" y="95" class="title">M2 + Old Pochmann (OP): Method Flow Used In This Trainer</text>
  <text x="70" y="132" class="subtitle">Method stays the same across tutorials. Convention (letters and buffers) can change.</text>

  <rect x="70" y="180" width="240" height="34" rx="17" fill="#e5f1ff"/>
  <text x="90" y="203" class="chip">TRAINING FLOW</text>

  <rect x="70" y="240" width="250" height="170" rx="18" fill="url(#cardA)" stroke="#b5d6d6"/>
  <text x="92" y="277" class="stephead">1) Read Target Letter</text>
  <text x="92" y="307" class="body">Find the sticker target for that</text>
  <text x="92" y="331" class="body">letter in your active convention.</text>
  <text x="92" y="365" class="muted">Skip buffer stickers.</text>

  <rect x="350" y="240" width="250" height="170" rx="18" fill="url(#cardB)" stroke="#c7b7f6"/>
  <text x="372" y="277" class="stephead">2) Recall Setup</text>
  <text x="372" y="307" class="body">Convert letter -&gt; setup move</text>
  <text x="372" y="331" class="body">for that exact target.</text>
  <text x="372" y="365" class="muted">No setup = direct core.</text>

  <rect x="630" y="240" width="250" height="170" rx="18" fill="url(#cardC)" stroke="#b7cdee"/>
  <text x="652" y="277" class="stephead">3) Execute Core</text>
  <text x="652" y="307" class="body">Edges: setup + M2 + undo.</text>
  <text x="652" y="331" class="body">Corners: setup + Y-perm + undo.</text>
  <text x="652" y="365" class="muted">Keep rhythm and accuracy.</text>

  <rect x="910" y="240" width="220" height="170" rx="18" fill="#edf6ef" stroke="#bcd7c0"/>
  <text x="932" y="277" class="stephead">4) Rate Recall</text>
  <text x="932" y="307" class="body">Again / Hard / Good / Easy</text>
  <text x="932" y="331" class="body">updates your SRS queue.</text>
  <text x="932" y="365" class="muted">Prioritize honest rating.</text>

  <path d="M323 325H342" stroke="#6ea0c7" stroke-width="4" stroke-linecap="round"/>
  <path d="M334 316L345 325L334 334" stroke="#6ea0c7" stroke-width="4" stroke-linecap="round" stroke-linejoin="round"/>
  <path d="M603 325H622" stroke="#7e91c8" stroke-width="4" stroke-linecap="round"/>
  <path d="M614 316L625 325L614 334" stroke="#7e91c8" stroke-width="4" stroke-linecap="round" stroke-linejoin="round"/>
  <path d="M883 325H902" stroke="#6c9f9f" stroke-width="4" stroke-linecap="round"/>
  <path d="M894 316L905 325L894 334" stroke="#6c9f9f" stroke-width="4" stroke-linecap="round" stroke-linejoin="round"/>

  <rect x="70" y="455" width="1060" height="205" rx="18" fill="url(#cardD)" stroke="#e1cf9d"/>
  <text x="95" y="496" class="stephead">Convention Used Here (Speffz + OP corner style)</text>

  <rect x="95" y="517" width="220" height="32" rx="10" fill="#ffffff" stroke="#dac68f"/>
  <text x="111" y="538" class="chip">EDGE BUFFER: UF (C / I)</text>

  <rect x="336" y="517" width="250" height="32" rx="10" fill="#ffffff" stroke="#dac68f"/>
  <text x="352" y="538" class="chip">CORNER BUFFER: URF (B / H / P)</text>

  <text x="95" y="579" class="body">Some tutorials use another corner buffer or another lettering scheme.</text>
  <text x="95" y="605" class="body">That does not make them wrong. The method is still:</text>
  <text x="95" y="631" class="footer">memo letters -&gt; setup -&gt; core move -&gt; undo -&gt; repeat.</text>
</svg>
